# xmcd
#
# Track frame offsets: 
#        150
#        20360
#        39755
#        60653
#        86670
#        108240
#        129343
#        152388
#        172335
#        205325
#
# Disc length: 3032 seconds
#
# Revision: 0
# Processed by: cddbd v1.5.2PL0 Copyright (c) Steve Scherf et al.
# Submitted via: ExactAudioCopy v1.0b3
#
DISCID=770bd60a
DTITLE=Thien Trang - Noi Buon Dem Dong
DYEAR=1991
DGENRE=
TTITLE0=Ly chim quyen
TTITLE1=Noi buon dem dong
TTITLE2=Khach la do xua
TTITLE3=Loi gia biet
TTITLE4=Chuyen tinh Mimosa
TTITLE5=Neu anh dung hen
TTITLE6=Sau co do
TTITLE7=Khuya nay anh di roi
TTITLE8=Con thuyen khong ben
TTITLE9=Doi con gai
EXTD=
EXTT0=
EXTT1=
EXTT2=
EXTT3=
EXTT4=
EXTT5=
EXTT6=
EXTT7=
EXTT8=
EXTT9=
PLAYORDER=
